<?xml version="1.0" encoding="utf-8"?>
<!-- Generator: Adobe Illustrator 16.0.4, SVG Export Plug-In . SVG Version: 6.00 Build 0)  -->
<!DOCTYPE svg PUBLIC "-//W3C//DTD SVG 1.1//EN" "http://www.w3.org/Graphics/SVG/1.1/DTD/svg11.dtd">
<svg version="1.1" id="Layer_1" xmlns="http://www.w3.org/2000/svg" xmlns:xlink="http://www.w3.org/1999/xlink" x="0px" y="0px"
	 width="300px" height="300px" viewBox="0 0 300 300" enable-background="new 0 0 300 300" xml:space="preserve">
<g>
	<path fill="#FFFFFF" d="M99.167,171.408c-6.957,0-11.853,5.016-11.853,10.881c0,5.018,3.89,10.57,11.164,10.57
		c7.46,0,11.622-5.6,11.622-10.883C110.101,176.559,105.891,171.408,99.167,171.408z M104.197,189.232
		c-1.049,1.433-2.881,2.281-4.664,2.281c-5.537,0-7.78-7.298-7.78-11.729c0-1.927,0.322-3.897,2.106-5.464
		c1.097-0.94,2.607-1.523,4.117-1.523c5.674,0,7.597,7.521,7.597,11.463C105.573,186.009,105.297,187.798,104.197,189.232z"/>
	<path fill="#FFFFFF" d="M73.475,171.408c-6.955,0-11.852,5.016-11.852,10.881c0,5.018,3.89,10.57,11.165,10.57
		c7.459,0,11.622-5.6,11.622-10.883C84.41,176.559,80.2,171.408,73.475,171.408z M78.507,189.232
		c-1.051,1.433-2.881,2.281-4.665,2.281c-5.539,0-7.779-7.298-7.779-11.729c0-1.927,0.32-3.897,2.104-5.464
		c1.098-0.94,2.609-1.523,4.118-1.523c5.674,0,7.596,7.521,7.596,11.463C79.881,186.009,79.606,187.798,78.507,189.232z"/>
	<path fill="#FFFFFF" d="M57.846,192.157l-6.579,1.485c-2.669,0.404-5.061,0.766-7.589,0.766c-12.697,0-17.526-9.141-17.526-16.301
		c0-8.732,6.853-16.836,18.584-16.836c2.484,0,4.875,0.358,7.036,0.944c3.451,0.945,5.061,2.116,6.073,2.791l-3.819,3.558
		l-1.609,0.359l1.15-1.802c-1.563-1.483-4.417-4.229-9.844-4.229c-7.269,0-12.743,5.403-12.743,13.281
		c0,8.463,6.256,16.432,16.283,16.432c2.946,0,4.462-0.584,5.842-1.125v-7.248l-6.945,0.359l3.679-1.936h9.753l-1.195,1.123
		c-0.325,0.271-0.369,0.363-0.461,0.721c-0.047,0.406-0.091,1.713-0.091,2.162L57.846,192.157L57.846,192.157z"/>
	<path fill="#FFFFFF" d="M142.398,190.861c0.782,0.09,1.564,0.134,2.347,0.225l-1.703,0.989H134.9
		c1.059-1.351,1.241-1.484,1.241-2.386v-1.486v-26.344l0.002,0.016v-0.02h-3.517l3.451-1.623h6.579
		c-1.427,0.812-1.887,1.082-2.071,2.658c-0.01,0.094-0.018,0.192-0.026,0.289v25.022v0.497
		C140.559,190.456,140.877,190.727,142.398,190.861"/>
	<path fill="#FFFFFF" d="M158.596,190.604c-4.34,0-8.27-3.309-9.412-8.985l3.521-0.269l10.733-4.25
		c-0.317-1.029-0.912-2.951-3.194-4.424c-1.369-0.852-3.062-1.253-4.707-1.253c-4.703,0-10.461,3.397-10.461,10.327
		c0,3.354,1.418,7.199,4.657,9.438c2.332,1.651,4.615,1.742,6.076,1.742c1.371,0,2.924-0.179,4.435-0.849
		c0.502-0.224,1.006-0.537,1.506-0.806l2.422-2.235C162.617,189.8,160.926,190.604,158.596,190.604z M149.002,179.113
		c0-4.829,3.424-6.217,5.254-6.217c2.467,0,4.523,2.059,4.523,3.847c0,0.626-0.457,0.894-1.324,1.206l-8.314,3.533
		C149.094,180.678,149.002,179.873,149.002,179.113z"/>
	<path fill="#FFFFFF" d="M128.358,191.468l-1.652-1.254c-0.503-0.405-1.19-0.942-1.19-1.929c0-0.987,0.688-1.618,1.283-2.199
		c1.925-1.479,3.849-3.051,3.849-6.369c0-3.41-2.198-5.203-3.251-6.056h2.84l2.933-1.614h-9.44c-2.475,0-5.591,0.357-8.203,2.467
		c-1.97,1.658-2.934,3.947-2.934,6.012c0,3.496,2.75,7.041,7.607,7.041c0.459,0,0.961-0.045,1.467-0.09
		c-0.229,0.539-0.459,0.987-0.459,1.75c0,1.391,0.733,2.241,1.376,3.049c-2.062,0.137-5.913,0.359-8.752,2.063
		c-2.707,1.572-3.53,3.856-3.53,5.474c0,3.319,3.207,6.414,9.854,6.414c7.881,0,12.052-4.261,12.052-8.477
		C132.206,194.652,130.374,193.128,128.358,191.468z M122.355,186.311c-3.942,0-5.73-4.979-5.73-7.983
		c0-1.167,0.229-2.377,1.007-3.318c0.735-0.897,2.018-1.481,3.21-1.481c3.803,0,5.773,5.024,5.773,8.254
		c0,0.809-0.092,2.24-1.145,3.275C124.734,185.771,123.5,186.311,122.355,186.311z M122.4,204.344c-4.902,0-8.066-2.289-8.066-5.474
		c0-3.187,2.934-4.263,3.941-4.619c1.924-0.629,4.4-0.72,4.813-0.72c0.456,0,0.687,0,1.052,0.046
		c3.484,2.424,4.998,3.631,4.998,5.922C129.138,202.277,126.798,204.344,122.4,204.344z"/>
</g>
<path fill="#FFFFFF" d="M46.621,256.076c0,1.227-0.209,2.29-0.625,3.191c-0.416,0.902-0.988,1.66-1.716,2.271
	c-0.729,0.613-1.609,1.07-2.638,1.371c-1.028,0.301-2.146,0.451-3.347,0.451h-6.592l-0.347,0.348v9.02l-0.347,0.348h-4.163
	l-0.348-0.348v-23.59l0.348-0.349h11.449c1.201,0,2.319,0.151,3.347,0.451c1.029,0.301,1.909,0.758,2.638,1.37
	c0.728,0.613,1.3,1.375,1.716,2.289S46.621,254.874,46.621,256.076 M41.764,256.076c0-1.202-0.318-2.021-0.954-2.463
	c-0.637-0.438-1.474-0.659-2.515-0.659h-6.592l-0.347,0.348v5.552l0.347,0.346h6.592c0.508,0,0.976-0.045,1.405-0.139
	c0.427-0.093,0.798-0.26,1.11-0.504c0.311-0.242,0.55-0.565,0.711-0.971C41.683,257.182,41.764,256.68,41.764,256.076"/>
<polygon fill="#FFFFFF" points="65.749,273.076 49.443,273.076 49.096,272.729 49.096,249.139 49.443,248.791 65.749,248.791 
	66.096,249.139 66.096,252.607 65.749,252.954 54.301,252.954 53.953,253.302 53.953,258.158 54.301,258.506 65.055,258.506 
	65.402,258.854 65.402,262.32 65.055,262.669 54.301,262.669 53.953,263.016 53.953,268.564 54.301,268.913 65.749,268.913 
	66.096,269.261 66.096,272.729 "/>
<polygon fill="#FFFFFF" points="118.152,248.791 112.947,248.791 112.601,249.139 106.119,262.479 105.773,262.479 99.292,249.139 
	98.945,248.791 93.74,248.791 93.395,249.139 93.395,272.729 93.74,273.076 97.904,273.076 98.251,272.729 98.251,257.889 
	98.597,257.889 104.021,269.068 104.367,269.416 104.74,269.416 106.71,269.416 107.525,269.416 107.873,269.068 113.296,257.889 
	113.641,257.889 113.641,272.729 113.988,273.076 118.152,273.076 118.5,272.729 118.5,249.139 "/>
<polygon fill="#FFFFFF" points="145.115,248.791 149.973,248.791 150.666,249.139 160.033,265.098 160.38,265.098 160.38,249.139 
	160.727,248.791 164.891,248.791 165.236,249.139 165.236,272.729 164.891,273.076 160.033,273.076 159.339,272.729 
	149.973,256.771 149.625,256.771 149.625,272.729 149.277,273.076 145.115,273.076 144.77,272.729 144.77,249.139 "/>
<polygon fill="#FFFFFF" points="186.066,273.076 169.762,273.076 169.416,272.729 169.416,249.139 169.762,248.791 186.066,248.791 
	186.415,249.139 186.415,252.607 186.066,252.954 174.62,252.954 174.271,253.302 174.271,258.158 174.62,258.506 185.373,258.506 
	185.721,258.854 185.721,262.32 185.373,262.669 174.62,262.669 174.271,263.016 174.271,268.564 174.62,268.913 186.066,268.913 
	186.415,269.261 186.415,272.729 "/>
<polygon fill="#FFFFFF" points="190.704,248.791 195.561,248.791 196.255,249.139 205.621,265.098 205.969,265.098 205.969,249.139 
	206.314,248.791 210.479,248.791 210.824,249.139 210.824,272.729 210.479,273.076 205.621,273.076 204.928,272.729 
	195.561,256.771 195.214,256.771 195.214,272.729 194.867,273.076 190.704,273.076 190.355,272.729 190.355,249.139 "/>
<polygon fill="#FFFFFF" points="233.611,252.954 226.675,252.954 226.326,253.302 226.326,272.729 225.979,273.076 221.816,273.076 
	221.469,272.729 221.469,253.302 221.123,252.954 214.184,252.954 213.837,252.607 213.837,249.139 214.184,248.791 
	233.611,248.791 233.959,249.139 233.959,252.607 "/>
<path fill="#FFFFFF" d="M134.09,249.139l-0.326-0.347h-4.256l-0.326,0.347l-8.546,22.82v0.923l0.195,0.194h4.096l0.327-0.348
	l1.636-4.51l0.654-0.347h8.184l0.654,0.347l1.637,4.51l0.327,0.348h4.232l0.195-0.194v-0.808L134.09,249.139z M128.865,263.71
	l-0.338-0.34l2.943-8.335h0.328l3.077,8.675H128.865z"/>
<path fill="#FFFFFF" d="M89.212,272.882v-0.542l-4.492-8.977v-0.35c0.693-0.16,1.353-0.438,1.977-0.832
	c0.624-0.393,1.179-0.886,1.665-1.475c0.485-0.591,0.866-1.271,1.145-2.046c0.278-0.775,0.416-1.638,0.416-2.586
	c0-1.201-0.207-2.261-0.625-3.173c-0.416-0.914-0.988-1.678-1.717-2.291c-0.728-0.612-1.607-1.069-2.636-1.37
	c-1.029-0.3-2.147-0.451-3.348-0.451H70.148l-0.348,0.347v23.592l0.348,0.348h4.164l0.346-0.348v-9.021l0.347-0.347h3.803
	l0.693,0.347l4.53,9.368l0.939-0.001h2.082l0.584,0.001h1.381L89.212,272.882z M84.112,258.557c-0.312,0.243-0.683,0.411-1.11,0.504
	c-0.429,0.094-0.897,0.139-1.405,0.139h-6.592l-0.347-0.346v-5.553l0.347-0.347h6.592c1.041,0,1.879,0.22,2.515,0.66
	c0.636,0.438,0.954,1.261,0.954,2.462c0,0.604-0.081,1.105-0.243,1.51C84.661,257.991,84.423,258.314,84.112,258.557"/>
<path fill="#FFFFFF" d="M45.598,232.471c-0.451-0.879-1.064-1.619-1.84-2.221c-0.774-0.602-1.693-1.08-2.758-1.439
	c-1.063-0.358-2.197-0.631-3.399-0.815c-1.226-0.16-2.237-0.341-3.035-0.537c-0.798-0.194-1.435-0.422-1.909-0.676
	c-0.475-0.255-0.809-0.566-1.006-0.938c-0.198-0.369-0.295-0.809-0.295-1.318c0-0.692,0.301-1.271,0.902-1.733
	c0.602-0.463,1.689-0.692,3.261-0.692l0.694,0.012v-4.164c-0.117-0.002-0.227-0.012-0.347-0.012c-1.643,0-3.052,0.18-4.233,0.537
	c-1.18,0.358-2.15,0.846-2.914,1.457c-0.762,0.612-1.324,1.317-1.682,2.116c-0.359,0.798-0.539,1.625-0.539,2.479
	c0,1.203,0.221,2.228,0.661,3.07c0.439,0.846,1.052,1.557,1.837,2.135c0.787,0.578,1.707,1.028,2.758,1.353
	c1.053,0.326,2.193,0.567,3.418,0.729c1.203,0.185,2.209,0.369,3.019,0.556c0.809,0.184,1.45,0.416,1.925,0.692
	c0.474,0.277,0.81,0.619,1.007,1.023c0.196,0.404,0.293,0.92,0.293,1.544h4.858C46.273,234.402,46.049,233.35,45.598,232.471"/>
<polygon fill="#FFFFFF" points="55.183,232.158 65.938,232.158 66.285,231.811 66.285,228.342 65.938,227.995 55.183,227.995 
	54.835,227.648 54.835,232.506 "/>
<polygon fill="#FFFFFF" points="102.838,218.281 102.49,218.629 102.49,228.688 107.348,228.688 107.348,218.629 107,218.281 "/>
<polygon fill="#00A69C" points="122.612,228.688 112.55,228.688 112.204,229.035 112.204,232.506 112.55,232.852 122.612,232.852 
	122.959,232.506 122.959,229.035 "/>
<polygon fill="#FFFFFF" points="91.006,218.281 90.66,218.629 84.178,231.969 83.832,231.969 81.602,227.379 76.656,227.379 
	82.08,238.559 82.426,238.906 82.799,238.906 84.768,238.906 85.584,238.906 85.932,238.559 91.354,227.379 91.701,227.379 
	91.701,218.281 "/>
<polygon fill="#46C6F1" points="102.49,242.219 102.837,242.566 107,242.566 107.347,242.219 107.347,228.689 102.49,228.689 "/>
<path fill="#46C6F1" d="M40.186,237.969c-0.821,0.521-2.03,0.781-3.625,0.781c-2.082,0-3.528-0.33-4.338-0.989
	c-0.809-0.659-1.213-1.601-1.213-2.827l-0.347-0.347h-4.164l-0.346,0.347c0,1.135,0.195,2.187,0.589,3.157
	c0.393,0.972,1.006,1.815,1.839,2.532s1.878,1.279,3.14,1.684c1.26,0.403,2.758,0.605,4.492,0.605c1.827,0,3.377-0.202,4.649-0.605
	c1.271-0.404,2.306-0.94,3.105-1.613c0.797-0.672,1.381-1.444,1.752-2.325c0.369-0.877,0.556-1.791,0.556-2.739h-4.858
	C41.417,236.668,41.005,237.449,40.186,237.969"/>
<polygon fill="#46C6F1" points="54.836,218.281 50.326,218.281 49.979,218.629 49.979,242.219 50.326,242.566 54.836,242.566 
	54.836,222.791 55.184,222.443 66.632,222.443 66.979,222.098 66.979,218.629 66.632,218.281 "/>
<polygon fill="#46C6F1" points="91.701,218.281 91.701,227.379 91.701,242.219 92.048,242.566 96.211,242.566 96.556,242.219 
	96.556,218.629 96.211,218.281 "/>
<path fill="#00A69C" d="M36.76,222.143c0.053,0.004,0.103,0.008,0.154,0.015c0.129,0.01,0.256,0.022,0.375,0.038
	c0.047,0.007,0.094,0.013,0.14,0.019c0.157,0.021,0.309,0.047,0.45,0.074c0.623,0.129,1.121,0.326,1.49,0.59
	c0.371,0.267,0.631,0.597,0.782,0.99c0.15,0.394,0.224,0.844,0.224,1.353l0.348,0.348h4.163l0.347-0.348
	c0-1.041-0.179-2.006-0.537-2.896c-0.36-0.891-0.92-1.658-1.683-2.307c-0.763-0.646-1.734-1.158-2.914-1.525
	c-0.28-0.088-0.574-0.164-0.88-0.23c-0.232-0.051-0.477-0.092-0.725-0.128c-0.07-0.011-0.135-0.026-0.207-0.036
	c-0.313-0.043-0.638-0.076-0.975-0.102c-0.007-0.002-0.013-0.002-0.021-0.002c-0.34-0.025-0.693-0.041-1.057-0.047
	c-0.007,0-0.013-0.002-0.021-0.002v0.002v4.164C36.404,222.117,36.584,222.129,36.76,222.143"/>
<polygon fill="#00A69C" points="77.352,218.628 77.003,218.281 71.801,218.281 71.454,218.628 71.454,242.219 71.801,242.566 
	75.962,242.566 76.311,242.219 76.311,227.379 76.658,227.379 81.602,227.379 "/>
<polygon fill="#FFFFFF" points="66.631,242.566 66.979,242.219 66.979,238.75 66.631,238.402 55.183,238.402 54.836,238.057 
	54.836,242.566 "/>
<text transform="matrix(1 0 0 1 28.1489 147.0098)" fill="#FFFFFF" font-family="'Roboto-Light'" font-size="11.3857">A collaboration between</text>
</svg>
