<?xml version="1.0" encoding="utf-8"?>
<!-- Generator: Adobe Illustrator 16.0.4, SVG Export Plug-In . SVG Version: 6.00 Build 0)  -->
<!DOCTYPE svg PUBLIC "-//W3C//DTD SVG 1.1//EN" "http://www.w3.org/Graphics/SVG/1.1/DTD/svg11.dtd">
<svg version="1.1" id="Layer_1" xmlns="http://www.w3.org/2000/svg" xmlns:xlink="http://www.w3.org/1999/xlink" x="0px" y="0px"
	 width="1027.5px" height="1027.5px" viewBox="-727.5 -727.5 1027.5 1027.5" enable-background="new -727.5 -727.5 1027.5 1027.5"
	 xml:space="preserve">
<g>
	<path fill="#FFFFFF" d="M-387.853-140.427c-23.828,0-40.597,17.178-40.597,37.267c0,17.186,13.324,36.204,38.237,36.204
		c25.55,0,39.806-19.182,39.806-37.274C-350.404-122.787-364.823-140.427-387.853-140.427z M-370.626-79.379
		c-3.592,4.907-9.867,7.813-15.973,7.813c-18.965,0-26.647-24.999-26.647-40.174c0-6.599,1.104-13.349,7.213-18.714
		c3.758-3.221,8.929-5.218,14.101-5.218c19.433,0,26.021,25.761,26.021,39.261C-365.912-90.42-366.858-84.292-370.626-79.379z"/>
	<path fill="#FFFFFF" d="M-475.848-140.427c-23.821,0-40.593,17.178-40.593,37.267c0,17.186,13.324,36.204,38.24,36.204
		c25.547,0,39.806-19.182,39.806-37.274C-438.395-122.787-452.814-140.427-475.848-140.427z M-458.614-79.379
		c-3.599,4.907-9.867,7.813-15.978,7.813c-18.97,0-26.643-24.999-26.643-40.174c0-6.599,1.096-13.349,7.207-18.714
		c3.761-3.221,8.935-5.218,14.104-5.218c19.433,0,26.015,25.761,26.015,39.261C-453.908-90.42-454.85-84.292-458.614-79.379z"/>
	<path fill="#FFFFFF" d="M-529.377-69.361l-22.533,5.087c-9.141,1.382-17.334,2.623-25.992,2.623
		c-43.488,0-60.027-31.307-60.027-55.83c0-29.909,23.472-57.663,63.65-57.663c8.509,0,16.697,1.224,24.099,3.231
		c11.82,3.238,17.334,7.248,20.801,9.559l-13.082,12.188l-5.51,1.228l3.938-6.171c-5.354-5.077-15.128-14.482-33.715-14.482
		c-24.896,0-43.646,18.503-43.646,45.485c0,28.985,21.426,56.282,55.77,56.282c10.089,0,15.282-2,20.008-3.853v-24.825
		l-23.786,1.228l12.6-6.633h33.404l-4.092,3.847c-1.114,0.93-1.265,1.244-1.579,2.472c-0.16,1.388-0.311,5.867-0.311,7.405
		L-529.377-69.361L-529.377-69.361z"/>
	<path fill="#FFFFFF" d="M-239.787-73.8c2.679,0.308,5.356,0.458,8.039,0.769l-5.833,3.388h-27.887
		c3.627-4.625,4.251-5.084,4.251-8.171v-5.091v-90.228l0.007,0.054v-0.067h-12.046l11.82-5.559h22.532
		c-4.887,2.78-6.462,3.706-7.093,9.104c-0.033,0.321-0.062,0.656-0.088,0.99v85.698v1.703
		C-246.085-75.188-244.997-74.262-239.787-73.8"/>
	<path fill="#FFFFFF" d="M-184.31-74.683c-14.864,0-28.323-11.332-32.235-30.771l12.059-0.923l36.759-14.556
		c-1.083-3.525-3.124-10.108-10.938-15.152c-4.689-2.917-10.489-4.292-16.121-4.292c-16.108,0-35.829,11.637-35.829,35.371
		c0,11.486,4.857,24.657,15.95,32.324c7.985,5.656,15.805,5.967,20.809,5.967c4.696,0,10.014-0.612,15.191-2.907
		c1.719-0.766,3.445-1.839,5.158-2.759l8.295-7.656C-170.536-77.436-176.329-74.683-184.31-74.683z M-217.168-114.037
		c0-16.54,11.727-21.292,17.995-21.292c8.449,0,15.493,7.051,15.493,13.175c0,2.144-1.565,3.061-4.536,4.131l-28.476,12.101
		C-216.854-108.679-217.168-111.435-217.168-114.037z"/>
	<path fill="#FFFFFF" d="M-287.874-71.723l-5.658-4.295c-1.723-1.388-4.076-3.228-4.076-6.606c0-3.381,2.356-5.542,4.394-7.532
		c6.594-5.064,13.183-10.449,13.183-21.814c0-11.68-7.527-17.821-11.135-20.741h9.727l10.046-5.529h-32.332
		c-8.478,0-19.149,1.224-28.096,8.449c-6.747,5.679-10.049,13.519-10.049,20.59c0,11.974,9.418,24.116,26.055,24.116
		c1.572,0,3.292-0.154,5.024-0.308c-0.784,1.846-1.572,3.381-1.572,5.994c0,4.766,2.51,7.676,4.712,10.442
		c-7.062,0.472-20.252,1.231-29.976,7.068c-9.271,5.385-12.091,13.208-12.091,18.747c0,11.369,10.984,21.968,33.751,21.968
		c26.992,0,41.277-14.593,41.277-29.032C-274.694-60.816-280.969-66.037-287.874-71.723z M-308.434-89.386
		c-13.501,0-19.625-17.052-19.625-27.34c0-3.997,0.785-8.141,3.449-11.366c2.519-3.07,6.912-5.07,10.994-5.07
		c13.026,0,19.774,17.205,19.774,28.27c0,2.77-0.316,7.673-3.922,11.218C-300.287-91.232-304.513-89.386-308.434-89.386z
		 M-308.28-27.623c-16.789,0-27.626-7.84-27.626-18.747c0-10.914,10.049-14.6,13.498-15.821c6.59-2.154,15.069-2.465,16.484-2.465
		c1.562,0,2.353,0,3.604,0.157c11.932,8.301,17.118,12.436,17.118,20.282C-285.202-34.7-293.217-27.623-308.28-27.623z"/>
</g>
<path fill="#FFFFFF" d="M-567.823,149.561c0,4.201-0.716,7.843-2.141,10.93c-1.425,3.088-3.385,5.683-5.878,7.776
	c-2.497,2.098-5.51,3.663-9.034,4.696c-3.522,1.03-7.35,1.542-11.464,1.542h-22.577l-1.189,1.194v30.895l-1.189,1.191h-14.257
	l-1.192-1.191V125.8l1.192-1.197h39.212c4.114,0,7.942,0.515,11.464,1.545c3.524,1.03,6.538,2.595,9.034,4.689
	c2.494,2.101,4.454,4.709,5.878,7.84C-568.539,141.808-567.823,145.443-567.823,149.561 M-584.458,149.561
	c0-4.118-1.09-6.924-3.268-8.436c-2.183-1.502-5.049-2.258-8.614-2.258h-22.577l-1.189,1.191v19.015l1.189,1.188h22.577
	c1.741,0,3.343-0.157,4.813-0.479c1.461-0.317,2.733-0.89,3.801-1.726c1.065-0.83,1.883-1.934,2.435-3.325
	C-584.735,153.347-584.458,151.628-584.458,149.561"/>
<polygon fill="#FFFFFF" points="-502.31,207.786 -558.158,207.786 -559.346,206.595 -559.346,125.8 -558.158,124.609 
	-502.31,124.609 -501.121,125.8 -501.121,137.681 -502.31,138.868 -541.52,138.868 -542.71,140.059 -542.71,156.691 
	-541.52,157.883 -504.686,157.883 -503.499,159.073 -503.499,170.947 -504.686,172.142 -541.52,172.142 -542.71,173.328 
	-542.71,192.333 -541.52,193.527 -502.31,193.527 -501.121,194.718 -501.121,206.595 "/>
<polygon fill="#FFFFFF" points="-322.83,124.609 -340.657,124.609 -341.841,125.8 -364.042,171.489 -365.228,171.489 
	-387.425,125.8 -388.614,124.609 -406.439,124.609 -407.622,125.8 -407.622,206.595 -406.439,207.786 -392.18,207.786 
	-390.99,206.595 -390.99,155.769 -389.805,155.769 -371.228,194.06 -370.042,195.25 -368.765,195.25 -362.019,195.25 
	-359.227,195.25 -358.035,194.06 -339.461,155.769 -338.279,155.769 -338.279,206.595 -337.092,207.786 -322.83,207.786 
	-321.638,206.595 -321.638,125.8 "/>
<polygon fill="#FFFFFF" points="-230.48,124.609 -213.842,124.609 -211.469,125.8 -179.386,180.459 -178.199,180.459 
	-178.199,125.8 -177.012,124.609 -162.75,124.609 -161.565,125.8 -161.565,206.595 -162.75,207.786 -179.386,207.786 
	-181.764,206.595 -213.842,151.942 -215.034,151.942 -215.034,206.595 -216.227,207.786 -230.48,207.786 -231.663,206.595 
	-231.663,125.8 "/>
<polygon fill="#FFFFFF" points="-90.223,207.786 -146.066,207.786 -147.25,206.595 -147.25,125.8 -146.066,124.609 -90.223,124.609 
	-89.028,125.8 -89.028,137.681 -90.223,138.868 -129.426,138.868 -130.62,140.059 -130.62,156.691 -129.426,157.883 
	-92.597,157.883 -91.407,159.073 -91.407,170.947 -92.597,172.142 -129.426,172.142 -130.62,173.328 -130.62,192.333 
	-129.426,193.527 -90.223,193.527 -89.028,194.718 -89.028,206.595 "/>
<polygon fill="#FFFFFF" points="-74.338,124.609 -57.705,124.609 -55.327,125.8 -23.248,180.459 -22.057,180.459 -22.057,125.8 
	-20.873,124.609 -6.611,124.609 -5.427,125.8 -5.427,206.595 -6.611,207.786 -23.248,207.786 -25.623,206.595 -57.705,151.942 
	-58.893,151.942 -58.893,206.595 -60.08,207.786 -74.338,207.786 -75.533,206.595 -75.533,125.8 "/>
<polygon fill="#FFFFFF" points="72.619,138.868 48.861,138.868 47.667,140.059 47.667,206.595 46.477,207.786 32.221,207.786 
	31.03,206.595 31.03,140.059 29.847,138.868 6.079,138.868 4.892,137.681 4.892,125.8 6.079,124.609 72.619,124.609 73.81,125.8 
	73.81,137.681 "/>
<path fill="#FFFFFF" d="M-268.242,125.8l-1.116-1.187h-14.578l-1.116,1.187l-29.27,78.16v3.16l0.667,0.666h14.028l1.121-1.191
	l5.604-15.449l2.239-1.187h28.031l2.239,1.187l5.607,15.449l1.121,1.191h14.494l0.667-0.666v-2.766L-268.242,125.8z
	 M-286.137,175.707l-1.159-1.164l10.081-28.547h1.122l10.539,29.711H-286.137z"/>
<path fill="#FFFFFF" d="M-421.949,207.12v-1.856l-15.384-30.744v-1.197c2.373-0.549,4.634-1.502,6.77-2.851
	c2.137-1.348,4.039-3.036,5.703-5.054c1.663-2.023,2.967-4.352,3.922-7.007c0.953-2.656,1.425-5.612,1.425-8.857
	c0-4.114-0.709-7.747-2.141-10.871c-1.425-3.13-3.383-5.746-5.88-7.847c-2.494-2.094-5.504-3.659-9.029-4.689
	c-3.523-1.03-7.354-1.545-11.466-1.545h-39.213l-1.192,1.188v80.805l1.192,1.191h14.262l1.186-1.191v-30.898l1.188-1.19h13.026
	l2.373,1.19l15.516,32.086l3.216-0.003h7.131l2,0.003h4.729L-421.949,207.12z M-439.417,158.057
	c-1.069,0.833-2.338,1.408-3.801,1.726c-1.468,0.321-3.072,0.479-4.812,0.479h-22.579l-1.188-1.188v-19.018l1.188-1.188h22.579
	c3.565,0,6.436,0.752,8.613,2.261c2.179,1.499,3.268,4.318,3.268,8.432c0,2.067-0.277,3.786-0.831,5.17
	C-437.536,156.12-438.352,157.227-439.417,158.057"/>
<path fill="#FFFFFF" d="M-571.326,68.712c-1.545-3.01-3.644-5.545-6.303-7.605c-2.651-2.061-5.798-3.699-9.446-4.93
	c-3.641-1.224-7.524-2.161-11.641-2.79c-4.199-0.549-7.663-1.171-10.396-1.84c-2.732-0.662-4.915-1.445-6.537-2.314
	c-1.627-0.876-2.771-1.94-3.447-3.211c-0.677-1.264-1.01-2.773-1.01-4.515c0-2.372,1.032-4.355,3.089-5.937
	c2.062-1.585,5.785-2.372,11.17-2.372l2.376,0.043V18.979c-0.4-0.007-0.778-0.043-1.188-0.043c-5.627,0-10.454,0.619-14.5,1.839
	c-4.041,1.228-7.363,2.896-9.979,4.99c-2.61,2.097-4.535,4.512-5.761,7.248c-1.229,2.733-1.846,5.566-1.846,8.493
	c0,4.121,0.758,7.629,2.264,10.516c1.503,2.896,3.603,5.332,6.292,7.312c2.696,1.98,5.847,3.519,9.446,4.632
	c3.607,1.117,7.51,1.943,11.707,2.499c4.121,0.632,7.565,1.265,10.34,1.903c2.771,0.632,4.967,1.425,6.594,2.372
	c1.623,0.946,2.773,2.12,3.449,3.502c0.67,1.384,1.003,3.15,1.003,5.288h16.639C-569.015,75.328-569.783,71.723-571.326,68.712"/>
<polygon fill="#FFFFFF" points="-538.498,67.642 -501.662,67.642 -500.473,66.451 -500.473,54.571 -501.662,53.383 -538.498,53.383 
	-539.69,52.196 -539.69,68.833 "/>
<polygon fill="#FFFFFF" points="-375.28,20.113 -376.471,21.304 -376.471,55.755 -359.833,55.755 -359.833,21.304 -361.025,20.113 
	"/>
<polygon fill="#00A69C" points="-307.555,55.755 -342.017,55.755 -343.201,56.945 -343.201,68.833 -342.017,70.017 -307.555,70.017 
	-306.365,68.833 -306.365,56.945 "/>
<polygon fill="#FFFFFF" points="-415.805,20.113 -416.989,21.304 -439.189,66.993 -440.375,66.993 -448.013,51.273 -464.954,51.273 
	-446.375,89.563 -445.192,90.754 -443.914,90.754 -437.169,90.754 -434.375,90.754 -433.183,89.563 -414.612,51.273 
	-413.423,51.273 -413.423,20.113 "/>
<polygon fill="#46C6F1" points="-376.471,102.099 -375.284,103.29 -361.025,103.29 -359.836,102.099 -359.836,55.761 
	-376.471,55.761 "/>
<path fill="#46C6F1" d="M-589.863,87.543c-2.811,1.786-6.952,2.676-12.416,2.676c-7.131,0-12.083-1.13-14.857-3.388
	c-2.771-2.258-4.156-5.482-4.156-9.683l-1.188-1.188h-14.262l-1.186,1.188c0,3.887,0.669,7.492,2.019,10.813
	c1.345,3.328,3.445,6.218,6.298,8.673s6.432,4.382,10.755,5.767c4.315,1.381,9.446,2.074,15.384,2.074
	c6.258,0,11.566-0.692,15.922-2.074c4.353-1.385,7.899-3.218,10.635-5.525c2.731-2.301,4.731-4.944,6-7.961
	c1.264-3.003,1.905-6.134,1.905-9.382h-16.639C-585.647,83.088-587.058,85.764-589.863,87.543"/>
<polygon fill="#46C6F1" points="-539.687,20.113 -555.133,20.113 -556.322,21.304 -556.322,102.099 -555.133,103.29 
	-539.687,103.29 -539.687,35.559 -538.495,34.369 -499.286,34.369 -498.097,33.185 -498.097,21.304 -499.286,20.113 "/>
<polygon fill="#46C6F1" points="-413.423,20.113 -413.423,51.273 -413.423,102.099 -412.236,103.29 -397.978,103.29 
	-396.795,102.099 -396.795,21.304 -397.978,20.113 "/>
<path fill="#00A69C" d="M-601.598,33.338c0.182,0.013,0.353,0.027,0.528,0.053c0.441,0.034,0.876,0.074,1.284,0.127
	c0.161,0.027,0.321,0.047,0.48,0.067c0.537,0.073,1.057,0.161,1.541,0.254c2.134,0.442,3.84,1.117,5.104,2.021
	c1.271,0.917,2.161,2.047,2.677,3.392c0.514,1.351,0.768,2.89,0.768,4.636l1.192,1.19h14.259l1.188-1.19
	c0-3.565-0.612-6.874-1.84-9.92c-1.232-3.05-3.15-5.68-5.763-7.9c-2.614-2.214-5.94-3.967-9.981-5.225
	c-0.96-0.301-1.966-0.562-3.013-0.789c-0.796-0.174-1.634-0.314-2.484-0.438c-0.241-0.037-0.463-0.09-0.709-0.124
	c-1.072-0.147-2.186-0.261-3.34-0.348c-0.023-0.007-0.045-0.007-0.072-0.007c-1.164-0.087-2.373-0.141-3.621-0.161
	c-0.023,0-0.043-0.007-0.072-0.007v0.007v14.262C-602.817,33.251-602.2,33.292-601.598,33.338"/>
<polygon fill="#00A69C" points="-462.569,21.301 -463.765,20.113 -481.583,20.113 -482.77,21.301 -482.77,102.099 -481.583,103.29 
	-467.331,103.29 -466.135,102.099 -466.135,51.273 -464.946,51.273 -448.013,51.273 "/>
<polygon fill="#FFFFFF" points="-499.289,103.29 -498.097,102.099 -498.097,90.219 -499.289,89.028 -538.498,89.028 
	-539.687,87.844 -539.687,103.29 "/>
<text transform="matrix(1 0 0 1 -631.0898 -223.9902)" fill="#FFFFFF" font-family="'Roboto-Light'" font-size="38.996">A collaboration between</text>
</svg>
